<mxfile host="app.diagrams.net" agent="Mozilla/5.0 (Windows NT 10.0; Win64; x64) AppleWebKit/537.36 (KHTML, like Gecko) Chrome/140.0.0.0 Safari/537.36" version="28.2.5">
  <diagram name="PÃ¡gina-1" id="o2nKE_NYRjv-4F8e_mK3">
    <mxGraphModel dx="2013" dy="755" grid="1" gridSize="10" guides="1" tooltips="1" connect="1" arrows="1" fold="1" page="1" pageScale="1" pageWidth="827" pageHeight="1169" math="0" shadow="0">
      <root>
        <mxCell id="0" />
        <mxCell id="1" parent="0" />
        <mxCell id="yfQq6Dmh8gri8vMIU5F2-6" value="" style="rounded=0;orthogonalLoop=1;jettySize=auto;html=1;endArrow=none;endFill=0;" edge="1" parent="1" source="hTD4xYwQKq1XY90gXdqR-2" target="hTD4xYwQKq1XY90gXdqR-8">
          <mxGeometry relative="1" as="geometry" />
        </mxCell>
        <mxCell id="yfQq6Dmh8gri8vMIU5F2-7" style="edgeStyle=none;shape=connector;rounded=0;orthogonalLoop=1;jettySize=auto;html=1;entryX=0.5;entryY=1;entryDx=0;entryDy=0;strokeColor=default;align=center;verticalAlign=middle;fontFamily=Helvetica;fontSize=11;fontColor=default;labelBackgroundColor=default;endArrow=none;endFill=0;" edge="1" parent="1" source="hTD4xYwQKq1XY90gXdqR-2" target="hTD4xYwQKq1XY90gXdqR-9">
          <mxGeometry relative="1" as="geometry" />
        </mxCell>
        <mxCell id="yfQq6Dmh8gri8vMIU5F2-8" style="edgeStyle=none;shape=connector;rounded=0;orthogonalLoop=1;jettySize=auto;html=1;strokeColor=default;align=center;verticalAlign=middle;fontFamily=Helvetica;fontSize=11;fontColor=default;labelBackgroundColor=default;endArrow=none;endFill=0;" edge="1" parent="1" source="hTD4xYwQKq1XY90gXdqR-2" target="hTD4xYwQKq1XY90gXdqR-7">
          <mxGeometry relative="1" as="geometry" />
        </mxCell>
        <mxCell id="yfQq6Dmh8gri8vMIU5F2-27" style="shape=link;rounded=0;orthogonalLoop=1;jettySize=auto;html=1;entryX=0.5;entryY=0;entryDx=0;entryDy=0;strokeColor=default;align=center;verticalAlign=middle;fontFamily=Helvetica;fontSize=11;fontColor=default;labelBackgroundColor=default;endArrow=none;endFill=0;edgeStyle=orthogonalEdgeStyle;" edge="1" parent="1" source="hTD4xYwQKq1XY90gXdqR-2" target="yfQq6Dmh8gri8vMIU5F2-26">
          <mxGeometry relative="1" as="geometry" />
        </mxCell>
        <mxCell id="yfQq6Dmh8gri8vMIU5F2-30" value="1" style="edgeLabel;html=1;align=center;verticalAlign=middle;resizable=0;points=[];fontFamily=Helvetica;fontSize=11;fontColor=default;labelBackgroundColor=default;" vertex="1" connectable="0" parent="yfQq6Dmh8gri8vMIU5F2-27">
          <mxGeometry x="-0.2333" y="1" relative="1" as="geometry">
            <mxPoint x="9" y="7" as="offset" />
          </mxGeometry>
        </mxCell>
        <mxCell id="yfQq6Dmh8gri8vMIU5F2-34" style="edgeStyle=orthogonalEdgeStyle;shape=connector;rounded=0;orthogonalLoop=1;jettySize=auto;html=1;entryX=0;entryY=0.5;entryDx=0;entryDy=0;strokeColor=default;align=center;verticalAlign=middle;fontFamily=Helvetica;fontSize=11;fontColor=default;labelBackgroundColor=default;endArrow=none;endFill=0;" edge="1" parent="1" source="hTD4xYwQKq1XY90gXdqR-2" target="yfQq6Dmh8gri8vMIU5F2-32">
          <mxGeometry relative="1" as="geometry" />
        </mxCell>
        <mxCell id="yfQq6Dmh8gri8vMIU5F2-38" value="M" style="edgeLabel;html=1;align=center;verticalAlign=middle;resizable=0;points=[];fontFamily=Helvetica;fontSize=11;fontColor=default;labelBackgroundColor=default;" vertex="1" connectable="0" parent="yfQq6Dmh8gri8vMIU5F2-34">
          <mxGeometry x="-0.2182" y="2" relative="1" as="geometry">
            <mxPoint x="23" y="-8" as="offset" />
          </mxGeometry>
        </mxCell>
        <mxCell id="yfQq6Dmh8gri8vMIU5F2-41" style="edgeStyle=orthogonalEdgeStyle;shape=connector;rounded=0;orthogonalLoop=1;jettySize=auto;html=1;entryX=1;entryY=0.5;entryDx=0;entryDy=0;strokeColor=default;align=center;verticalAlign=middle;fontFamily=Helvetica;fontSize=11;fontColor=default;labelBackgroundColor=default;endArrow=none;endFill=0;" edge="1" parent="1" source="hTD4xYwQKq1XY90gXdqR-2" target="yfQq6Dmh8gri8vMIU5F2-39">
          <mxGeometry relative="1" as="geometry" />
        </mxCell>
        <mxCell id="yfQq6Dmh8gri8vMIU5F2-42" value="N" style="edgeLabel;html=1;align=center;verticalAlign=middle;resizable=0;points=[];fontFamily=Helvetica;fontSize=11;fontColor=default;labelBackgroundColor=default;" vertex="1" connectable="0" parent="yfQq6Dmh8gri8vMIU5F2-41">
          <mxGeometry relative="1" as="geometry">
            <mxPoint x="-11" y="-10" as="offset" />
          </mxGeometry>
        </mxCell>
        <mxCell id="hTD4xYwQKq1XY90gXdqR-2" value="CLUBE" style="whiteSpace=wrap;html=1;align=center;" parent="1" vertex="1">
          <mxGeometry x="350" y="220" width="100" height="40" as="geometry" />
        </mxCell>
        <mxCell id="yfQq6Dmh8gri8vMIU5F2-9" style="edgeStyle=none;shape=connector;rounded=0;orthogonalLoop=1;jettySize=auto;html=1;strokeColor=default;align=center;verticalAlign=middle;fontFamily=Helvetica;fontSize=11;fontColor=default;labelBackgroundColor=default;endArrow=none;endFill=0;" edge="1" parent="1" source="hTD4xYwQKq1XY90gXdqR-3" target="hTD4xYwQKq1XY90gXdqR-17">
          <mxGeometry relative="1" as="geometry" />
        </mxCell>
        <mxCell id="yfQq6Dmh8gri8vMIU5F2-11" style="edgeStyle=none;shape=connector;rounded=0;orthogonalLoop=1;jettySize=auto;html=1;strokeColor=default;align=center;verticalAlign=middle;fontFamily=Helvetica;fontSize=11;fontColor=default;labelBackgroundColor=default;endArrow=none;endFill=0;" edge="1" parent="1" source="hTD4xYwQKq1XY90gXdqR-3" target="hTD4xYwQKq1XY90gXdqR-18">
          <mxGeometry relative="1" as="geometry" />
        </mxCell>
        <mxCell id="yfQq6Dmh8gri8vMIU5F2-12" style="edgeStyle=none;shape=connector;rounded=0;orthogonalLoop=1;jettySize=auto;html=1;strokeColor=default;align=center;verticalAlign=middle;fontFamily=Helvetica;fontSize=11;fontColor=default;labelBackgroundColor=default;endArrow=none;endFill=0;" edge="1" parent="1" source="hTD4xYwQKq1XY90gXdqR-3" target="hTD4xYwQKq1XY90gXdqR-20">
          <mxGeometry relative="1" as="geometry" />
        </mxCell>
        <mxCell id="yfQq6Dmh8gri8vMIU5F2-13" style="edgeStyle=none;shape=connector;rounded=0;orthogonalLoop=1;jettySize=auto;html=1;strokeColor=default;align=center;verticalAlign=middle;fontFamily=Helvetica;fontSize=11;fontColor=default;labelBackgroundColor=default;endArrow=none;endFill=0;" edge="1" parent="1" source="hTD4xYwQKq1XY90gXdqR-3" target="hTD4xYwQKq1XY90gXdqR-21">
          <mxGeometry relative="1" as="geometry" />
        </mxCell>
        <mxCell id="yfQq6Dmh8gri8vMIU5F2-14" style="edgeStyle=none;shape=connector;rounded=0;orthogonalLoop=1;jettySize=auto;html=1;strokeColor=default;align=center;verticalAlign=middle;fontFamily=Helvetica;fontSize=11;fontColor=default;labelBackgroundColor=default;endArrow=none;endFill=0;" edge="1" parent="1" source="hTD4xYwQKq1XY90gXdqR-3" target="hTD4xYwQKq1XY90gXdqR-22">
          <mxGeometry relative="1" as="geometry" />
        </mxCell>
        <mxCell id="hTD4xYwQKq1XY90gXdqR-3" value="JOGOS" style="whiteSpace=wrap;html=1;align=center;" parent="1" vertex="1">
          <mxGeometry x="670" y="360" width="100" height="40" as="geometry" />
        </mxCell>
        <mxCell id="yfQq6Dmh8gri8vMIU5F2-16" style="edgeStyle=none;shape=connector;rounded=0;orthogonalLoop=1;jettySize=auto;html=1;strokeColor=default;align=center;verticalAlign=middle;fontFamily=Helvetica;fontSize=11;fontColor=default;labelBackgroundColor=default;endArrow=none;endFill=0;" edge="1" parent="1" source="hTD4xYwQKq1XY90gXdqR-4" target="hTD4xYwQKq1XY90gXdqR-13">
          <mxGeometry relative="1" as="geometry" />
        </mxCell>
        <mxCell id="yfQq6Dmh8gri8vMIU5F2-19" style="edgeStyle=none;shape=connector;rounded=0;orthogonalLoop=1;jettySize=auto;html=1;entryX=1;entryY=0;entryDx=0;entryDy=0;strokeColor=default;align=center;verticalAlign=middle;fontFamily=Helvetica;fontSize=11;fontColor=default;labelBackgroundColor=default;endArrow=none;endFill=0;" edge="1" parent="1" source="hTD4xYwQKq1XY90gXdqR-4" target="hTD4xYwQKq1XY90gXdqR-10">
          <mxGeometry relative="1" as="geometry" />
        </mxCell>
        <mxCell id="yfQq6Dmh8gri8vMIU5F2-28" style="edgeStyle=orthogonalEdgeStyle;shape=connector;rounded=0;orthogonalLoop=1;jettySize=auto;html=1;entryX=0.5;entryY=1;entryDx=0;entryDy=0;strokeColor=default;align=center;verticalAlign=middle;fontFamily=Helvetica;fontSize=11;fontColor=default;labelBackgroundColor=default;endArrow=none;endFill=0;" edge="1" parent="1" source="hTD4xYwQKq1XY90gXdqR-4" target="yfQq6Dmh8gri8vMIU5F2-26">
          <mxGeometry relative="1" as="geometry" />
        </mxCell>
        <mxCell id="yfQq6Dmh8gri8vMIU5F2-29" value="N" style="edgeLabel;html=1;align=center;verticalAlign=middle;resizable=0;points=[];fontFamily=Helvetica;fontSize=11;fontColor=default;labelBackgroundColor=default;" vertex="1" connectable="0" parent="yfQq6Dmh8gri8vMIU5F2-28">
          <mxGeometry x="-0.2727" y="-1" relative="1" as="geometry">
            <mxPoint x="-8" y="9" as="offset" />
          </mxGeometry>
        </mxCell>
        <mxCell id="yfQq6Dmh8gri8vMIU5F2-47" style="shape=connector;rounded=0;orthogonalLoop=1;jettySize=auto;html=1;entryX=1;entryY=0;entryDx=0;entryDy=0;strokeColor=default;align=center;verticalAlign=middle;fontFamily=Helvetica;fontSize=11;fontColor=default;labelBackgroundColor=default;endArrow=none;endFill=0;" edge="1" parent="1" source="hTD4xYwQKq1XY90gXdqR-4" target="yfQq6Dmh8gri8vMIU5F2-46">
          <mxGeometry relative="1" as="geometry" />
        </mxCell>
        <mxCell id="hTD4xYwQKq1XY90gXdqR-4" value="JOGADORES" style="whiteSpace=wrap;html=1;align=center;" parent="1" vertex="1">
          <mxGeometry x="170" y="520" width="100" height="40" as="geometry" />
        </mxCell>
        <mxCell id="yfQq6Dmh8gri8vMIU5F2-20" style="edgeStyle=none;shape=connector;rounded=0;orthogonalLoop=1;jettySize=auto;html=1;strokeColor=default;align=center;verticalAlign=middle;fontFamily=Helvetica;fontSize=11;fontColor=default;labelBackgroundColor=default;endArrow=none;endFill=0;" edge="1" parent="1" source="hTD4xYwQKq1XY90gXdqR-5" target="yfQq6Dmh8gri8vMIU5F2-1">
          <mxGeometry relative="1" as="geometry" />
        </mxCell>
        <mxCell id="yfQq6Dmh8gri8vMIU5F2-21" style="edgeStyle=none;shape=connector;rounded=0;orthogonalLoop=1;jettySize=auto;html=1;strokeColor=default;align=center;verticalAlign=middle;fontFamily=Helvetica;fontSize=11;fontColor=default;labelBackgroundColor=default;endArrow=none;endFill=0;" edge="1" parent="1" source="hTD4xYwQKq1XY90gXdqR-5" target="yfQq6Dmh8gri8vMIU5F2-5">
          <mxGeometry relative="1" as="geometry" />
        </mxCell>
        <mxCell id="yfQq6Dmh8gri8vMIU5F2-23" style="edgeStyle=none;shape=connector;rounded=0;orthogonalLoop=1;jettySize=auto;html=1;strokeColor=default;align=center;verticalAlign=middle;fontFamily=Helvetica;fontSize=11;fontColor=default;labelBackgroundColor=default;endArrow=none;endFill=0;" edge="1" parent="1" source="hTD4xYwQKq1XY90gXdqR-5" target="yfQq6Dmh8gri8vMIU5F2-4">
          <mxGeometry relative="1" as="geometry" />
        </mxCell>
        <mxCell id="yfQq6Dmh8gri8vMIU5F2-24" style="edgeStyle=none;shape=connector;rounded=0;orthogonalLoop=1;jettySize=auto;html=1;strokeColor=default;align=center;verticalAlign=middle;fontFamily=Helvetica;fontSize=11;fontColor=default;labelBackgroundColor=default;endArrow=none;endFill=0;" edge="1" parent="1" source="hTD4xYwQKq1XY90gXdqR-5" target="yfQq6Dmh8gri8vMIU5F2-3">
          <mxGeometry relative="1" as="geometry" />
        </mxCell>
        <mxCell id="yfQq6Dmh8gri8vMIU5F2-40" style="edgeStyle=orthogonalEdgeStyle;shape=link;rounded=0;orthogonalLoop=1;jettySize=auto;html=1;entryX=0;entryY=0.5;entryDx=0;entryDy=0;strokeColor=default;align=center;verticalAlign=middle;fontFamily=Helvetica;fontSize=11;fontColor=default;labelBackgroundColor=default;endArrow=none;endFill=0;" edge="1" parent="1" source="hTD4xYwQKq1XY90gXdqR-5" target="yfQq6Dmh8gri8vMIU5F2-39">
          <mxGeometry relative="1" as="geometry" />
        </mxCell>
        <mxCell id="yfQq6Dmh8gri8vMIU5F2-45" value="M" style="edgeLabel;html=1;align=center;verticalAlign=middle;resizable=0;points=[];fontFamily=Helvetica;fontSize=11;fontColor=default;labelBackgroundColor=default;" vertex="1" connectable="0" parent="yfQq6Dmh8gri8vMIU5F2-40">
          <mxGeometry x="-0.3636" y="1" relative="1" as="geometry">
            <mxPoint x="9" y="5" as="offset" />
          </mxGeometry>
        </mxCell>
        <mxCell id="yfQq6Dmh8gri8vMIU5F2-49" style="shape=connector;rounded=0;orthogonalLoop=1;jettySize=auto;html=1;entryX=1;entryY=1;entryDx=0;entryDy=0;strokeColor=default;align=center;verticalAlign=middle;fontFamily=Helvetica;fontSize=11;fontColor=default;labelBackgroundColor=default;endArrow=none;endFill=0;dashed=1;" edge="1" parent="1" source="hTD4xYwQKq1XY90gXdqR-5" target="yfQq6Dmh8gri8vMIU5F2-48">
          <mxGeometry relative="1" as="geometry" />
        </mxCell>
        <mxCell id="yfQq6Dmh8gri8vMIU5F2-52" style="shape=connector;rounded=0;orthogonalLoop=1;jettySize=auto;html=1;strokeColor=default;align=center;verticalAlign=middle;fontFamily=Helvetica;fontSize=11;fontColor=default;labelBackgroundColor=default;endArrow=none;endFill=0;" edge="1" parent="1" source="hTD4xYwQKq1XY90gXdqR-5" target="yfQq6Dmh8gri8vMIU5F2-51">
          <mxGeometry relative="1" as="geometry" />
        </mxCell>
        <mxCell id="yfQq6Dmh8gri8vMIU5F2-53" style="edgeStyle=none;shape=connector;rounded=0;orthogonalLoop=1;jettySize=auto;html=1;entryX=1;entryY=1;entryDx=0;entryDy=0;strokeColor=default;align=center;verticalAlign=middle;fontFamily=Helvetica;fontSize=11;fontColor=default;labelBackgroundColor=default;endArrow=none;endFill=0;" edge="1" parent="1" source="hTD4xYwQKq1XY90gXdqR-5" target="yfQq6Dmh8gri8vMIU5F2-50">
          <mxGeometry relative="1" as="geometry" />
        </mxCell>
        <mxCell id="hTD4xYwQKq1XY90gXdqR-5" value="TABELA" style="whiteSpace=wrap;html=1;align=center;" parent="1" vertex="1">
          <mxGeometry x="100" y="140" width="100" height="40" as="geometry" />
        </mxCell>
        <mxCell id="hTD4xYwQKq1XY90gXdqR-7" value="Nome" style="ellipse;whiteSpace=wrap;html=1;align=center;" parent="1" vertex="1">
          <mxGeometry x="520" y="90" width="100" height="40" as="geometry" />
        </mxCell>
        <mxCell id="hTD4xYwQKq1XY90gXdqR-8" value="Capitao" style="ellipse;whiteSpace=wrap;html=1;align=center;" parent="1" vertex="1">
          <mxGeometry x="314" y="90" width="100" height="40" as="geometry" />
        </mxCell>
        <mxCell id="hTD4xYwQKq1XY90gXdqR-9" value="Hino" style="ellipse;whiteSpace=wrap;html=1;align=center;" parent="1" vertex="1">
          <mxGeometry x="414" y="70" width="100" height="40" as="geometry" />
        </mxCell>
        <mxCell id="hTD4xYwQKq1XY90gXdqR-10" value="Clube" style="ellipse;whiteSpace=wrap;html=1;align=center;" parent="1" vertex="1">
          <mxGeometry x="10" y="560" width="100" height="40" as="geometry" />
        </mxCell>
        <mxCell id="hTD4xYwQKq1XY90gXdqR-12" value="Nome" style="ellipse;whiteSpace=wrap;html=1;align=center;" parent="1" vertex="1">
          <mxGeometry x="140" y="630" width="100" height="40" as="geometry" />
        </mxCell>
        <mxCell id="hTD4xYwQKq1XY90gXdqR-13" value="Golos" style="ellipse;whiteSpace=wrap;html=1;align=center;" parent="1" vertex="1">
          <mxGeometry x="250" y="620" width="100" height="40" as="geometry" />
        </mxCell>
        <mxCell id="hTD4xYwQKq1XY90gXdqR-15" value="Cartoes" style="ellipse;whiteSpace=wrap;html=1;align=center;" parent="1" vertex="1">
          <mxGeometry x="330" y="590" width="100" height="40" as="geometry" />
        </mxCell>
        <mxCell id="hTD4xYwQKq1XY90gXdqR-17" value="EquipaAdver" style="ellipse;whiteSpace=wrap;html=1;align=center;" parent="1" vertex="1">
          <mxGeometry x="790" y="280" width="100" height="40" as="geometry" />
        </mxCell>
        <mxCell id="hTD4xYwQKq1XY90gXdqR-18" value="Resultado" style="ellipse;whiteSpace=wrap;html=1;align=center;" parent="1" vertex="1">
          <mxGeometry x="800" y="330" width="100" height="40" as="geometry" />
        </mxCell>
        <mxCell id="hTD4xYwQKq1XY90gXdqR-20" value="Marcadores" style="ellipse;whiteSpace=wrap;html=1;align=center;" parent="1" vertex="1">
          <mxGeometry x="800" y="380" width="100" height="40" as="geometry" />
        </mxCell>
        <mxCell id="hTD4xYwQKq1XY90gXdqR-21" value="Amarelos" style="ellipse;whiteSpace=wrap;html=1;align=center;" parent="1" vertex="1">
          <mxGeometry x="780" y="430" width="100" height="40" as="geometry" />
        </mxCell>
        <mxCell id="hTD4xYwQKq1XY90gXdqR-22" value="Vermelhos" style="ellipse;whiteSpace=wrap;html=1;align=center;" parent="1" vertex="1">
          <mxGeometry x="727" y="470" width="100" height="40" as="geometry" />
        </mxCell>
        <mxCell id="yfQq6Dmh8gri8vMIU5F2-1" value="Pontos" style="ellipse;whiteSpace=wrap;html=1;align=center;" vertex="1" parent="1">
          <mxGeometry y="20" width="100" height="40" as="geometry" />
        </mxCell>
        <mxCell id="yfQq6Dmh8gri8vMIU5F2-3" value="Amarelos" style="ellipse;whiteSpace=wrap;html=1;align=center;" vertex="1" parent="1">
          <mxGeometry x="30" y="250" width="100" height="40" as="geometry" />
        </mxCell>
        <mxCell id="yfQq6Dmh8gri8vMIU5F2-4" value="Vermelhos" style="ellipse;whiteSpace=wrap;html=1;align=center;" vertex="1" parent="1">
          <mxGeometry x="-50" y="220" width="100" height="40" as="geometry" />
        </mxCell>
        <mxCell id="yfQq6Dmh8gri8vMIU5F2-5" value="Clube" style="ellipse;whiteSpace=wrap;html=1;align=center;" vertex="1" parent="1">
          <mxGeometry x="100" y="20" width="100" height="40" as="geometry" />
        </mxCell>
        <mxCell id="yfQq6Dmh8gri8vMIU5F2-10" style="edgeStyle=none;shape=connector;rounded=0;orthogonalLoop=1;jettySize=auto;html=1;exitX=0.75;exitY=1;exitDx=0;exitDy=0;strokeColor=default;align=center;verticalAlign=middle;fontFamily=Helvetica;fontSize=11;fontColor=default;labelBackgroundColor=default;endArrow=none;endFill=0;" edge="1" parent="1" source="hTD4xYwQKq1XY90gXdqR-3" target="hTD4xYwQKq1XY90gXdqR-3">
          <mxGeometry relative="1" as="geometry" />
        </mxCell>
        <mxCell id="yfQq6Dmh8gri8vMIU5F2-15" style="edgeStyle=none;shape=connector;rounded=0;orthogonalLoop=1;jettySize=auto;html=1;entryX=0.29;entryY=0.15;entryDx=0;entryDy=0;entryPerimeter=0;strokeColor=default;align=center;verticalAlign=middle;fontFamily=Helvetica;fontSize=11;fontColor=default;labelBackgroundColor=default;endArrow=none;endFill=0;" edge="1" parent="1" source="hTD4xYwQKq1XY90gXdqR-4" target="hTD4xYwQKq1XY90gXdqR-15">
          <mxGeometry relative="1" as="geometry" />
        </mxCell>
        <mxCell id="yfQq6Dmh8gri8vMIU5F2-17" style="edgeStyle=none;shape=connector;rounded=0;orthogonalLoop=1;jettySize=auto;html=1;entryX=0.71;entryY=0.125;entryDx=0;entryDy=0;entryPerimeter=0;strokeColor=default;align=center;verticalAlign=middle;fontFamily=Helvetica;fontSize=11;fontColor=default;labelBackgroundColor=default;endArrow=none;endFill=0;" edge="1" parent="1" source="hTD4xYwQKq1XY90gXdqR-4" target="hTD4xYwQKq1XY90gXdqR-12">
          <mxGeometry relative="1" as="geometry" />
        </mxCell>
        <mxCell id="yfQq6Dmh8gri8vMIU5F2-26" value="PERTENCE_A" style="shape=rhombus;perimeter=rhombusPerimeter;whiteSpace=wrap;html=1;align=center;fontFamily=Helvetica;fontSize=11;fontColor=default;labelBackgroundColor=default;" vertex="1" parent="1">
          <mxGeometry x="340" y="380" width="120" height="60" as="geometry" />
        </mxCell>
        <mxCell id="yfQq6Dmh8gri8vMIU5F2-33" style="edgeStyle=orthogonalEdgeStyle;shape=link;rounded=0;orthogonalLoop=1;jettySize=auto;html=1;entryX=0;entryY=0.5;entryDx=0;entryDy=0;strokeColor=default;align=center;verticalAlign=middle;fontFamily=Helvetica;fontSize=11;fontColor=default;labelBackgroundColor=default;endArrow=none;endFill=0;" edge="1" parent="1" source="yfQq6Dmh8gri8vMIU5F2-32" target="hTD4xYwQKq1XY90gXdqR-3">
          <mxGeometry relative="1" as="geometry" />
        </mxCell>
        <mxCell id="yfQq6Dmh8gri8vMIU5F2-37" value="N" style="edgeLabel;html=1;align=center;verticalAlign=middle;resizable=0;points=[];fontFamily=Helvetica;fontSize=11;fontColor=default;labelBackgroundColor=default;" vertex="1" connectable="0" parent="yfQq6Dmh8gri8vMIU5F2-33">
          <mxGeometry x="0.0667" y="2" relative="1" as="geometry">
            <mxPoint x="8" y="-4" as="offset" />
          </mxGeometry>
        </mxCell>
        <mxCell id="yfQq6Dmh8gri8vMIU5F2-32" value="JOGOU" style="shape=rhombus;perimeter=rhombusPerimeter;whiteSpace=wrap;html=1;align=center;fontFamily=Helvetica;fontSize=11;fontColor=default;labelBackgroundColor=default;" vertex="1" parent="1">
          <mxGeometry x="510" y="270" width="120" height="60" as="geometry" />
        </mxCell>
        <mxCell id="yfQq6Dmh8gri8vMIU5F2-36" style="shape=connector;rounded=0;orthogonalLoop=1;jettySize=auto;html=1;entryX=1;entryY=0;entryDx=0;entryDy=0;strokeColor=default;align=center;verticalAlign=middle;fontFamily=Helvetica;fontSize=11;fontColor=default;labelBackgroundColor=default;endArrow=none;endFill=0;" edge="1" parent="1" source="yfQq6Dmh8gri8vMIU5F2-35" target="yfQq6Dmh8gri8vMIU5F2-32">
          <mxGeometry relative="1" as="geometry" />
        </mxCell>
        <mxCell id="yfQq6Dmh8gri8vMIU5F2-35" value="Data" style="ellipse;whiteSpace=wrap;html=1;align=center;" vertex="1" parent="1">
          <mxGeometry x="560" y="200" width="100" height="40" as="geometry" />
        </mxCell>
        <mxCell id="yfQq6Dmh8gri8vMIU5F2-39" value="COLOCACAO" style="shape=rhombus;perimeter=rhombusPerimeter;whiteSpace=wrap;html=1;align=center;fontFamily=Helvetica;fontSize=11;fontColor=default;labelBackgroundColor=default;" vertex="1" parent="1">
          <mxGeometry x="170" y="210" width="120" height="60" as="geometry" />
        </mxCell>
        <mxCell id="yfQq6Dmh8gri8vMIU5F2-46" value="Num" style="ellipse;whiteSpace=wrap;html=1;align=center;fontStyle=4;fontFamily=Helvetica;fontSize=11;fontColor=default;labelBackgroundColor=default;" vertex="1" parent="1">
          <mxGeometry x="50" y="600" width="100" height="40" as="geometry" />
        </mxCell>
        <mxCell id="yfQq6Dmh8gri8vMIU5F2-48" value="DiferenÃ§aGolos" style="ellipse;whiteSpace=wrap;html=1;align=center;dashed=1;fontFamily=Helvetica;fontSize=11;fontColor=default;labelBackgroundColor=default;" vertex="1" parent="1">
          <mxGeometry x="-80" y="50" width="100" height="40" as="geometry" />
        </mxCell>
        <mxCell id="yfQq6Dmh8gri8vMIU5F2-50" value="GolosSofridos" style="ellipse;whiteSpace=wrap;html=1;align=center;" vertex="1" parent="1">
          <mxGeometry x="-110" y="100" width="100" height="40" as="geometry" />
        </mxCell>
        <mxCell id="yfQq6Dmh8gri8vMIU5F2-51" value="GolosMarcados" style="ellipse;whiteSpace=wrap;html=1;align=center;" vertex="1" parent="1">
          <mxGeometry x="-110" y="160" width="100" height="40" as="geometry" />
        </mxCell>
      </root>
    </mxGraphModel>
  </diagram>
</mxfile>
